<?xml version="1.0" standalone="no"?><!DOCTYPE svg PUBLIC "-//W3C//DTD SVG 1.1//EN" "http://www.w3.org/Graphics/SVG/1.1/DTD/svg11.dtd"><svg class="icon" width="200px" height="200.00px" viewBox="0 0 1024 1024" version="1.1" xmlns="http://www.w3.org/2000/svg"><path d="M635.5 913.6v0.9h329.9v-721c0-70.4-42.6-127.4-95.2-127.4H172.7c-59.8 0-108.3 48.5-108.3 108.3s48.5 108.3 108.3 108.3h462.9v630.9z" fill="#67C1B2" /><path d="M965.5 929H635.6c-8 0-14.5-6.5-14.5-14.5V297.3H172.7c-67.7 0-122.9-55.1-122.9-122.9 0-67.7 55.1-122.9 122.9-122.9h697.6c60.5 0 109.7 63.7 109.7 141.9v721c-0.2 8-6.7 14.6-14.5 14.6z m-315.4-29H951V193.5c0-62.3-36.2-112.9-80.7-112.9H172.7c-51.7 0-93.8 42.1-93.8 93.8 0 51.7 42.1 93.8 93.8 93.8h462.9c8 0 14.5 6.5 14.5 14.5V900z" fill="#353535" /><path d="M861 674.5c0 34.8-32.3 63-72.2 63-39.9 0-72.2-28.2-72.2-63v-340c0-34.8 32.3-63 72.2-63 39.9 0 72.2 28.2 72.2 63v340z" fill="#FFFFFF" /><path d="M788.7 752c-47.8 0-86.8-34.8-86.8-77.6v-340c0-42.8 38.9-77.5 86.8-77.5 47.8 0 86.8 34.8 86.8 77.5v340c0 42.8-38.9 77.6-86.8 77.6z m0-466c-31.8 0-57.7 21.8-57.7 48.5v340c0 26.8 25.9 48.5 57.7 48.5 31.8 0 57.7-21.8 57.7-48.5v-340c0-26.7-25.8-48.5-57.7-48.5z" fill="#353535" /><path d="M204.7 616.5c-45.9 2.9-82.2 41.1-82.2 87.7s36.3 84.8 82.2 87.7V616.5z" fill="#FFFFFF" /><path d="M204.7 806.4h-0.9C150.1 803 108 758.1 108 704.2c0-53.9 42.1-98.8 95.8-102.2 4-0.2 7.9 1.1 10.9 3.9 2.9 2.7 4.6 6.6 4.6 10.6v175.4c0 4-1.7 7.8-4.6 10.6-2.8 2.5-6.3 3.9-10 3.9z m-14.5-172.8c-30.8 8.8-53.2 37.3-53.2 70.6s22.4 61.7 53.2 70.5V633.6z" fill="#353535" /><path d="M201.6 578.1v264h1.6c4.7 16.1 19.6 27.9 37.2 27.9h186.4c17.7 0 32.5-11.8 37.2-27.9h1.6V578.2h-264z" fill="#EEE3D2" /><path d="M426.8 884.7H240.4c-21.2 0-40.4-12.8-48.8-31.9-2.8-2.6-4.5-6.4-4.5-10.5V578.1c0-8 6.5-14.5 14.5-14.5h264.1c8 0 14.5 6.5 14.5 14.5v264.1c0 4.2-1.7 7.9-4.5 10.5-8.5 19.1-27.7 32-48.9 32z m-210.7-49.1c0.4 0.8 0.7 1.6 1 2.5 3 10.3 12.6 17.5 23.3 17.5h186.4c10.7 0 20.3-7.2 23.3-17.5 0.3-0.9 0.6-1.7 1-2.5v-243h-235v243z" fill="#353535" /><path d="M243.4 345.6h196.9V468H243.4z" fill="#EDB52B" /><path d="M440.3 482.5H243.4c-8 0-14.5-6.5-14.5-14.5V345.6c0-8 6.5-14.5 14.5-14.5h196.9c8 0 14.5 6.5 14.5 14.5V468c0 8-6.5 14.5-14.5 14.5z m-182.4-29h167.9v-93.4H257.9v93.4z" fill="#353535" /><path d="M187.5 281.7h308.7v74.5H187.5z" fill="#EDB52B" /><path d="M496.2 370.7H187.5c-8 0-14.5-6.5-14.5-14.5v-74.5c0-8 6.5-14.5 14.5-14.5h308.7c8 0 14.5 6.5 14.5 14.5v74.5c0 8-6.5 14.5-14.5 14.5z m-294.2-29h279.7v-45.5H202v45.5z" fill="#353535" /><path d="M239.4 427.5H111.1c-8 0-14.5-6.5-14.5-14.5s6.5-14.5 14.5-14.5h128.3c8 0 14.5 6.5 14.5 14.5s-6.5 14.5-14.5 14.5z" fill="#353535" /><path d="M968.8 913.1c0 24.5-19.8 44.3-44.3 44.3H97.1c-24.5 0-44.3-19.8-44.3-44.3 0-24.5 19.8-44.3 44.3-44.3h827.3c24.5 0 44.4 19.8 44.4 44.3z" fill="#67C1B2" /><path d="M924.5 972H97.1c-32.4 0-58.8-26.4-58.8-58.8s26.4-58.8 58.8-58.8h827.3c32.4 0 58.8 26.4 58.8 58.8S956.9 972 924.5 972zM97.1 883.3c-16.4 0-29.8 13.4-29.8 29.8s13.4 29.8 29.8 29.8h827.3c16.4 0 29.8-13.4 29.8-29.8s-13.4-29.8-29.8-29.8H97.1z" fill="#353535" /><path d="M718.5 504.5h72.3" fill="#FFFFFF" /><path d="M790.8 519h-72.2c-8 0-14.5-6.5-14.5-14.5s6.5-14.5 14.5-14.5h72.2c8 0 14.5 6.5 14.5 14.5s-6.5 14.5-14.5 14.5z" fill="#353535" /><path d="M774.7 802.2c0 17.6-14.2 31.8-31.8 31.8s-31.8-14.3-31.8-31.8 14.2-31.8 31.8-31.8 31.8 14.3 31.8 31.8z" fill="#EEE3D2" /><path d="M742.9 842.4c-22.1 0-40.1-18-40.1-40.1s18-40.1 40.1-40.1 40.1 18 40.1 40.1-18 40.1-40.1 40.1z m0-63.7c-13 0-23.5 10.6-23.5 23.5 0 13 10.6 23.5 23.5 23.5 13 0 23.5-10.6 23.5-23.5s-10.5-23.5-23.5-23.5z" fill="#353535" /><path d="M870.2 802.2c0 17.6-14.2 31.8-31.8 31.8s-31.8-14.3-31.8-31.8 14.3-31.8 31.8-31.8 31.8 14.3 31.8 31.8z" fill="#EEE3D2" /><path d="M838.4 842.4c-22.1 0-40.1-18-40.1-40.1s18-40.1 40.1-40.1 40.1 18 40.1 40.1-18 40.1-40.1 40.1z m0-63.7c-13 0-23.5 10.6-23.5 23.5 0 13 10.6 23.5 23.5 23.5s23.5-10.6 23.5-23.5-10.6-23.5-23.5-23.5z" fill="#353535" /></svg>