<?xml version="1.0" standalone="no"?><!DOCTYPE svg PUBLIC "-//W3C//DTD SVG 1.1//EN" "http://www.w3.org/Graphics/SVG/1.1/DTD/svg11.dtd"><svg class="icon" width="200px" height="200.00px" viewBox="0 0 1024 1024" version="1.1" xmlns="http://www.w3.org/2000/svg"><path d="M153.6 76.4a55.025 55.025 0 0 0-38.9-16.1c-30.4 0-55 24.6-55 55 0 14.6 5.8 28.6 16.1 38.9l201.6 201.6 77.8-77.8L153.6 76.4z" fill="#67C1B2" /><path d="M883.9 884.5H59.7V900c0 34.3 27.8 62.2 62.2 62.2h777.5c34.4 0 62.2-27.9 62.2-62.2v-15.6h-77.7zM420.1 522L324 418l96.1 104c60.4 64.7 159.8 73.5 230.5 20.4L370.7 262.5 355.2 278l-77.8 77.8-40.2 40.2c-12.1 12.1-12.1 31.8 0 44l149.1 149c85.9 85.9 225.1 85.9 311 0l-46.7-46.6c-70.7 53-170.1 44.2-230.5-20.4M355.2 278l-77.8 77.8z" fill="#EEE3D2" /><path d="M930.6 868.9V729c0-8.6-7-15.5-15.6-15.5h-31.1c-8.6 0-15.6 7-15.6 15.5v140c0 8.6 7 15.5 15.6 15.5H915c8.6 0 15.6-7 15.6-15.6M670.7 724.4L646 749.1c-6.1 6.1-6.1 15.9 0 22l102.4 102.4c6.1 6.1 15.9 6.1 22 0l24.7-24.7c6.1-6.1 6.1-15.9 0-22L692.7 724.4c-6-6.1-15.9-6.1-22 0M541.8 853.4V744.5c0-17.2-13.9-31.1-31.1-31.1H355.2c-17.2 0-31.1 13.9-31.1 31.1v108.9c0 17.2 13.9 31.1 31.1 31.1h155.5c17.2 0 31.1-13.9 31.1-31.1m-171.1-77.8h31.1-31.1z m62.2 0h62.2-62.2zM261.9 853.4V573.5c0-17.2-13.9-31.1-31.1-31.1H121.9c-17.2 0-31.1 13.9-31.1 31.1v279.9c0 17.2 13.9 31.1 31.1 31.1h108.8c17.2 0 31.2-13.9 31.2-31.1M153 837.8v-171 171z m0-202.1v-31.1 31.1z" fill="#EDB52B" /><path d="M277.4 371.3c-4 0-8-1.5-11-4.6L64.8 165.2c-13.1-13.1-20.7-31.3-20.7-49.9 0-38.9 31.6-70.5 70.5-70.5 18.8 0 36.5 7.3 49.9 20.7L366.2 267c2.9 2.9 4.6 6.9 4.6 11s-1.6 8.1-4.6 11l-77.8 77.8c-3 3-7 4.5-11 4.5zM114.7 75.9c-21.7 0-39.4 17.7-39.4 39.4 0 10.4 4.2 20.6 11.5 27.9l190.6 190.6 55.8-55.8L142.6 87.4c-7.5-7.4-17.4-11.5-27.9-11.5zM899.4 977.8H121.9c-42.9 0-77.8-34.9-77.8-77.8v-15.6c0-8.6 7-15.6 15.6-15.6h901.9c8.6 0 15.6 7 15.6 15.6V900c0 42.9-34.9 77.8-77.8 77.8zM75.3 900c0 25.7 20.9 46.7 46.7 46.7h777.5c25.7 0 46.7-20.9 46.7-46.7H75.3z" fill="#353535" /><path d="M541.8 669c-62.9 0-122-24.5-166.5-69L226.2 451c-8.8-8.8-13.7-20.5-13.7-33s4.9-24.2 13.7-33l133.5-133.5c6.1-6.1 15.9-6.1 22 0L708.3 578c6.1 6.1 6.1 15.9 0 22-44.5 44.5-103.6 69-166.5 69zM370.7 284.5L248.2 407c-2.9 2.9-4.6 6.9-4.6 11s1.6 8.1 4.6 11l149.1 149c38.6 38.6 89.9 59.9 144.5 59.9 49.4 0 96.1-17.4 133.1-49.3L370.7 284.5zM915 900h-31.1c-17.2 0-31.1-14-31.1-31.1V729c0-17.2 14-31.1 31.1-31.1H915c17.2 0 31.1 14 31.1 31.1v140c0 17.1-13.9 31-31.1 31z m0-171h-31.1v140H915V729zM759.5 893.6c-8.3 0-16.1-3.2-22-9.1L635.1 782.1c-12.1-12.1-12.1-31.8 0-44l24.7-24.7c11.8-11.8 32.2-11.7 44 0l102.4 102.4c12.1 12.1 12.1 31.9 0 44l-24.7 24.7c-5.9 5.8-13.7 9.1-22 9.1z m0-31.1V878v-15.5z m-77.7-127.1l-24.7 24.7 102.4 102.4 24.7-24.7-102.4-102.4zM510.7 900H355.2c-25.7 0-46.7-20.9-46.7-46.7V744.5c0-25.7 20.9-46.7 46.7-46.7h155.5c25.7 0 46.7 20.9 46.7 46.7v108.9c-0.1 25.7-21 46.6-46.7 46.6zM355.2 729c-8.6 0-15.6 7-15.6 15.5v108.9c0 8.6 7 15.5 15.6 15.5h155.5c8.6 0 15.6-7 15.6-15.5V744.5c0-8.6-7-15.5-15.6-15.5H355.2z" fill="#353535" /><path d="M546.7 592.7c-50.7 0-101-20.4-138-60.1l-96.1-104.1 22.8-21.1 96.1 104c55 58.9 145.2 66.9 209.8 18.5l18.7 24.9c-33.9 25.4-73.7 37.9-113.3 37.9zM230.8 900H121.9c-25.7 0-46.7-20.9-46.7-46.7V573.5c0-25.7 20.9-46.7 46.7-46.7h108.8c25.7 0 46.7 20.9 46.7 46.7v279.9c0 25.7-20.9 46.6-46.6 46.6zM121.9 557.9c-8.6 0-15.6 7-15.6 15.5v279.9c0 8.6 7 15.5 15.6 15.5h108.8c8.6 0 15.6-7 15.6-15.5V573.5c0-8.6-7-15.5-15.6-15.5H121.9z" fill="#353535" /><path d="M137.5 604.6h31.1v31.1h-31.1zM137.5 666.8h31.1v171.1h-31.1zM370.7 760.1h31.1v31.1h-31.1zM432.9 760.1h62.2v31.1h-62.2zM930.5 44.7h31.1v62.2h-31.1zM930.5 169.1h31.1v295.5h-31.1zM806.1 107h31.1v93.3h-31.1zM806.1 262.5h31.1v326.6h-31.1z" fill="#353535" /></svg>