<?xml version="1.0" standalone="no"?><!DOCTYPE svg PUBLIC "-//W3C//DTD SVG 1.1//EN" "http://www.w3.org/Graphics/SVG/1.1/DTD/svg11.dtd"><svg class="icon" width="200px" height="200.00px" viewBox="0 0 1024 1024" version="1.1" xmlns="http://www.w3.org/2000/svg"><path d="M95.2 893.3h830c36.7 0 66.4-29.7 66.4-66.4V196.1c0-36.7-29.7-66.4-66.4-66.4h-830c-36.7 0-66.4 29.7-66.4 66.4v630.8c0 36.7 29.7 66.4 66.4 66.4m697.2-664h132.8v99.6H792.4v-99.6z m66.4 199.2c36.7 0 66.4 29.7 66.4 66.4s-29.7 66.4-66.4 66.4-66.4-29.7-66.4-66.4 29.7-66.4 66.4-66.4m0 232.4c36.7 0 66.4 29.7 66.4 66.4s-29.7 66.4-66.4 66.4-66.4-29.7-66.4-66.4c0-36.6 29.7-66.4 66.4-66.4M95.2 229.3h614.2v149.4h33.2v265.6h-33.2v149.4H95.2V229.3z" fill="#67C1B2" /><path d="M709.4 644.3h-16.6c-18.3 0-33.2-14.9-33.2-33.2V411.9c0-18.3 14.9-33.2 33.2-33.2h16.6V229.3H95.2v564.4h614.2V644.3zM394 411.9l-99.6 99.6 99.6-99.6z m-33.2 215.8l149.4-149.4-149.4 149.4z" fill="#EEE3D2" /><path d="M792.4 229.3h132.8v99.6H792.4z" fill="#EDB52B" /><path d="M858.8 561.3c36.7 0 66.4-29.7 66.4-66.4s-29.7-66.4-66.4-66.4-66.4 29.7-66.4 66.4 29.7 66.4 66.4 66.4M858.8 793.7c36.7 0 66.4-29.7 66.4-66.4s-29.7-66.4-66.4-66.4-66.4 29.7-66.4 66.4 29.7 66.4 66.4 66.4" fill="#EEE3D2" /><path d="M659.6 411.9v199.2c0 18.3 14.9 33.2 33.2 33.2H742.6V378.7H692.8c-18.3 0-33.2 14.9-33.2 33.2" fill="#58B09A" /><path d="M925.2 909.9h-830c-45.8 0-83-37.2-83-83V196.1c0-45.8 37.2-83 83-83h830c45.8 0 83 37.2 83 83v630.8c0 45.8-37.2 83-83 83z m-830-763.6c-27.5 0-49.8 22.3-49.8 49.8v630.8c0 27.5 22.3 49.8 49.8 49.8h830c27.5 0 49.8-22.3 49.8-49.8V196.1c0-27.5-22.3-49.8-49.8-49.8h-830z" fill="#353535" /><path d="M709.4 810.3H95.2c-9.2 0-16.6-7.4-16.6-16.6V229.3c0-9.2 7.4-16.6 16.6-16.6h614.2c9.2 0 16.6 7.4 16.6 16.6v149.4c0 9.2-7.4 16.6-16.6 16.6h-16.6c-9.2 0-16.6 7.4-16.6 16.6v199.2c0 9.2 7.4 16.6 16.6 16.6h16.6c9.2 0 16.6 7.4 16.6 16.6v149.4c0 9.2-7.4 16.6-16.6 16.6z m-597.6-33.2h581V660.9c-27.5 0-49.8-22.3-49.8-49.8V411.9c0-27.5 22.3-49.8 49.8-49.8V245.9h-581v531.2zM925.2 345.5H792.4c-9.2 0-16.6-7.4-16.6-16.6v-99.6c0-9.2 7.4-16.6 16.6-16.6h132.8c9.2 0 16.6 7.4 16.6 16.6v99.6c0 9.2-7.4 16.6-16.6 16.6zM809 312.3h99.6v-66.4H809v66.4zM858.8 577.9c-45.8 0-83-37.2-83-83s37.2-83 83-83 83 37.2 83 83-37.2 83-83 83z m0-132.8c-27.5 0-49.8 22.3-49.8 49.8 0 27.5 22.3 49.8 49.8 49.8 27.5 0 49.8-22.3 49.8-49.8 0-27.4-22.3-49.8-49.8-49.8zM858.8 810.3c-45.8 0-83-37.2-83-83s37.2-83 83-83 83 37.2 83 83-37.2 83-83 83z m0-132.8c-27.5 0-49.8 22.3-49.8 49.8 0 27.5 22.3 49.8 49.8 49.8 27.5 0 49.8-22.3 49.8-49.8 0-27.4-22.3-49.8-49.8-49.8z" fill="#353535" /><path d="M742.6 660.9h-49.8c-27.5 0-49.8-22.3-49.8-49.8V411.9c0-27.5 22.3-49.8 49.8-49.8h49.8c9.2 0 16.6 7.4 16.6 16.6v265.6c0 9.2-7.4 16.6-16.6 16.6z m-49.8-265.6c-9.2 0-16.6 7.4-16.6 16.6v199.2c0 9.2 7.4 16.6 16.6 16.6H726V395.3h-33.2zM372.5 639.5L349.1 616l149.4-149.4 23.4 23.4zM382.247 400.19l23.475 23.476-99.63 99.63-23.476-23.476z" fill="#353535" /></svg>