<?xml version="1.0" standalone="no"?><!DOCTYPE svg PUBLIC "-//W3C//DTD SVG 1.1//EN" "http://www.w3.org/Graphics/SVG/1.1/DTD/svg11.dtd"><svg class="icon" width="200px" height="200.00px" viewBox="0 0 1024 1024" version="1.1" xmlns="http://www.w3.org/2000/svg"><path d="M210.6 779h-126c-17.4 0-31.5 14.1-31.5 31.5V842c0 17.4 14.1 31.5 31.5 31.5h126c17.4 0 31.5-14.1 31.5-31.5v-31.5c0-17.4-14.1-31.5-31.5-31.5" fill="#67C1B2" /><path d="M478.4 842c17.4 0 31.5-14.1 31.5-31.5V779h-63v31.5c0 17.4 14.1 31.5 31.5 31.5" fill="#EDB52B" /><path d="M588.6 849.9c0 21.7-17.6 39.4-39.4 39.4-21.8 0-39.4-17.6-39.4-39.4v-39.4c0 17.4-14.1 31.5-31.5 31.5s-31.5-14.1-31.5-31.5V779h-63v63c0 69.6 56.4 126 126 126h330.8c69.6 0 126-56.4 126-126v-63h-378v70.9z" fill="#EEE3D2" /><path d="M509.9 849.9c0 21.7 17.6 39.4 39.4 39.4 21.7 0 39.4-17.6 39.4-39.4V779H510v70.9z" fill="#EDB52B" /><path d="M343.2 402.6l4.5 22.7c3 14.8 11.2 28.1 23.1 37.4l123.3 95.9 126-126-95.9-123.3a63.23 63.23 0 0 0-37.4-23.1l-22.7-4.5c-20.6-4.1-42 2.3-56.9 17.2l-46.8 46.8c-14.8 14.9-21.3 36.2-17.2 56.9m166.7-17.3l-63 63 63-63z" fill="#67C1B2" /><path d="M790.7 356.5l18.5-18.5-126-126-18.5 18.5c-24.6 24.6-24.6 64.5 0 89.1l36.9 36.9c24.6 24.6 64.5 24.6 89.1 0M512.6 577c24.6 24.6 64.5 24.6 89.1 0l36.9-36.9c24.6-24.6 24.6-64.5 0-89.1l-18.5-18.4-126 126 18.5 18.4z" fill="#EEE3D2" /><path d="M931.5 242.9c12.5-9.7 20.9-23.8 23.5-39.4l6.4-38.3c3.4-20.1-3.2-40.5-17.6-54.9l-32.9-32.9a63.357 63.357 0 0 0-55-17.6l-38.3 6.4c-15.6 2.6-29.7 11-39.4 23.5L683.1 212l126 126 122.4-95.1z m-138.1-46.6c0-17.4 14.1-31.5 31.5-31.5s31.5 14.1 31.5 31.5-14.1 31.5-31.5 31.5-31.5-14.1-31.5-31.5" fill="#EDB52B" /><path d="M856.4 196.3c0-17.4-14.1-31.5-31.5-31.5s-31.5 14.1-31.5 31.5 14.1 31.5 31.5 31.5 31.5-14.1 31.5-31.5" fill="#EEE3D2" /><path d="M210.6 889.3h-126c-26.1 0-47.3-21.2-47.3-47.3v-31.5c0-26 21.2-47.3 47.3-47.3h126c26.1 0 47.2 21.2 47.2 47.3V842c0.1 26.1-21.1 47.3-47.2 47.3z m-126-94.5c-8.7 0-15.8 7.1-15.8 15.7V842c0 8.7 7.1 15.8 15.8 15.8h126c8.7 0 15.7-7.1 15.7-15.8v-31.5c0-8.7-7.1-15.7-15.7-15.7h-126zM840.6 983.8H509.9c-78.2 0-141.8-63.6-141.8-141.8v-63c0-8.7 7.1-15.8 15.8-15.8h582.8c8.7 0 15.8 7.1 15.8 15.8v63c-0.1 78.2-63.7 141.8-141.9 141.8z m-441-189V842c0 60.8 49.5 110.3 110.3 110.3h330.7c60.8 0 110.3-49.5 110.3-110.3v-47.2H399.6z" fill="#353535" /><path d="M549.3 905c-28.7 0-52.3-22-54.9-50-5 1.8-10.4 2.8-16 2.8-26.1 0-47.3-21.2-47.3-47.3V779h31.5v31.5c0 8.7 7.1 15.7 15.8 15.7s15.8-7.1 15.8-15.7V779c0-8.7 7.1-15.8 15.8-15.8 8.7 0 15.8 7.1 15.8 15.8v70.9c0 13 10.6 23.6 23.6 23.6s23.6-10.6 23.6-23.6V779h31.5v70.9c-0.1 30.4-24.8 55.1-55.2 55.1zM494.1 574.3c-3.4 0-6.8-1.1-9.7-3.3l-123.2-95.9c-14.9-11.6-25.2-28.2-28.9-46.7l-4.5-22.7c-5.2-25.9 2.9-52.5 21.5-71.1l46.8-46.8c14.9-14.9 34.6-23.1 55.7-23.1 5.2 0 10.4 0.5 15.4 1.5l22.7 4.5c18.5 3.7 35.1 14 46.7 28.9l95.9 123.3c4.9 6.3 4.3 15.2-1.3 20.8l-126 126c-3 3-7 4.6-11.1 4.6z m-42.3-278.1c-12.4 0-24.6 5-33.4 13.8l-46.8 46.8c-11.2 11.2-16 27.2-12.9 42.7l4.5 22.7c2.2 11.1 8.4 21.1 17.3 28l112.3 87.3 106.3-106.3-87.3-112.3c-7-8.9-16.9-15.1-28-17.3l-22.7-4.5c-3-0.6-6.2-0.9-9.3-0.9zM746.1 390.7c-21 0-40.8-8.2-55.7-23.1l-36.9-36.9c-14.9-14.9-23.1-34.6-23.1-55.7 0-21 8.2-40.8 23.1-55.7l18.4-18.5c3-3 7-4.6 11.1-4.6 4.2 0 8.2 1.7 11.1 4.6l126 126c6.1 6.1 6.1 16.1 0 22.3l-18.5 18.5c-14.7 14.9-34.4 23.1-55.5 23.1z m-63-156.4l-7.3 7.3c-8.9 8.9-13.8 20.8-13.8 33.4 0 12.6 4.9 24.5 13.8 33.4l36.9 36.9c8.9 8.9 20.8 13.8 33.4 13.8s24.5-4.9 33.4-13.8l7.3-7.3-103.7-103.7zM572.9 684.5h31.5V716h-31.5zM635.9 653h31.5v31.5h-31.5zM698.9 700.3h31.5v31.5h-31.5zM730.4 527h31.5v31.5h-31.5zM730.4 448.3h31.5v31.5h-31.5zM714.6 605.8h31.5v31.5h-31.5zM242.1 794.8h141.8v31.5H242.1z" fill="#353535" /><path d="M557.1 611.2c-21 0-40.8-8.2-55.7-23.1L483 569.7c-6.2-6.1-6.2-16.1 0-22.3l126-126c3-3 7-4.6 11.1-4.6 4.2 0 8.2 1.7 11.1 4.6l18.4 18.5c14.9 14.9 23.1 34.7 23.1 55.7s-8.2 40.8-23.1 55.7l-36.9 36.9c-14.8 14.8-34.5 23-55.6 23z m-40.7-52.7l7.3 7.3c8.9 8.9 20.8 13.8 33.4 13.8 12.6 0 24.5-4.9 33.4-13.8l36.9-36.9c8.9-8.9 13.8-20.8 13.8-33.4 0-12.6-4.9-24.5-13.8-33.4l-7.3-7.3-103.7 103.7zM809.1 353.8c-4 0-8.1-1.6-11.1-4.6l-126-126c-5.6-5.6-6.2-14.5-1.3-20.8L765.9 80c12.2-15.7 29.6-26.1 49.2-29.3l38.3-6.4c25-4.2 50.7 4.1 68.6 22l32.9 32.9c17.9 18 26.2 43.6 22 68.6l-6.4 38.3c-3.3 19.6-13.7 37-29.3 49.2l-122.3 95.1c-2.9 2.3-6.4 3.4-9.8 3.4z m-105-143.1L810.4 317l111.4-86.6c9.4-7.3 15.6-17.8 17.6-29.5l6.4-38.3c2.5-15-2.4-30.4-13.2-41.2l-32.9-32.9c-10.6-10.6-26.4-15.7-41.2-13.2l-38.3 6.4c-11.7 2-22.2 8.2-29.5 17.6l-86.6 111.4zM498.73 374.09l22.273 22.273L458 459.366l-22.273-22.274z" fill="#353535" /><path d="M824.9 243.5c-26.1 0-47.2-21.2-47.2-47.3s21.2-47.3 47.2-47.3c26.1 0 47.3 21.2 47.3 47.3s-21.3 47.3-47.3 47.3z m0-63c-8.7 0-15.7 7.1-15.7 15.8s7.1 15.7 15.7 15.7c8.7 0 15.7-7.1 15.7-15.7s-7-15.8-15.7-15.8zM415.4 101.8h31.5v126h-31.5zM415.4 38.7h31.5v31.5h-31.5zM336.6 133.3h31.5v126h-31.5zM336.6 70.2h31.5v31.5h-31.5z" fill="#353535" /></svg>