<?xml version="1.0" standalone="no"?><!DOCTYPE svg PUBLIC "-//W3C//DTD SVG 1.1//EN" "http://www.w3.org/Graphics/SVG/1.1/DTD/svg11.dtd"><svg class="icon" width="200px" height="200.00px" viewBox="0 0 1024 1024" version="1.1" xmlns="http://www.w3.org/2000/svg"><path d="M719.2 403.2l1.2-34.6-1.2 34.6z" fill="#EEE3D2" /><path d="M262.6 822.4l-14.5 101.3c-5.8 40.7 25.7 77 66.8 77H733c41.1 0 72.6-36.4 66.8-77l-14.5-101.3c-4.8-33.3-33.2-58-66.8-58h-389c-33.6 0-62.1 24.7-66.9 58m430.2 60.2h-67.5 67.5z m-168.7-50.7c28 0 50.6 22.7 50.6 50.6 0 28-22.7 50.6-50.6 50.6-28 0-50.6-22.7-50.6-50.6-0.1-27.9 22.6-50.6 50.6-50.6m-101.3 50.7h-67.5 67.5z" fill="#67C1B2" /><path d="M524.1 933.2c27.9 0 50.6-22.7 50.6-50.6 0-27.9-22.7-50.6-50.6-50.6-28 0-50.6 22.7-50.6 50.6-0.1 27.9 22.6 50.6 50.6 50.6M355.3 680.1c-18.7 0-33.8 15.1-33.8 33.7v50.6H726.5v-50.6c0-18.6-15.1-33.7-33.8-33.7H355.3zM338.4 443.8c34-8 49.7-25.3 84.4-50.6 52.6-38.5 91.8-67.1 135-67.5 38.3-0.3 52.6 23.2 101.2 50.6 16.1 9.1 36.2 18.6 60.2 26.9l1.2-34.6 3.8-110.5 2.3-67.5H227.2c-15 0-22.6 18.2-11.9 28.8l110.4 110.4L336.1 615 330 445.2c2.8-0.5 5.5-0.7 8.4-1.4" fill="#EEE3D2" /><path d="M726.6 190.7v-33.8c0-37.3-30.2-67.5-67.5-67.5H389c-37.3 0-67.5 30.2-67.5 67.5v33.8h405.1z" fill="#67C1B2" /><path d="M608.4 55.7c0-18.6-15.1-33.8-33.8-33.8H473.4c-18.6 0-33.8 15.1-33.8 33.8v33.7h168.8V55.7z" fill="#67C1B2" /><path d="M720.4 368.6l3.8-110.5-3.8 110.5zM719.2 403.2l-7.3 211.7 4.5-128.7z" fill="#EEE3D2" /><path d="M659.1 376.3c-48.6-27.4-62.9-51-101.3-50.6-43.2 0.4-82.4 29-135 67.5-34.7 25.3-50.4 42.6-84.4 50.6-2.9 0.7-5.6 0.9-8.5 1.4L336 615c1.3 36.3 31.1 65.1 67.5 65.1h240.9c36.4 0 66.2-28.8 67.5-65.2l7.3-211.7c-24-8.3-44-17.8-60.1-26.9M557.8 561.9v-33.7 33.7z m0-67.5V393.2v101.2z m84.4 118.2v-33.8 33.8z m0-67.5V443.8v101.3z" fill="#EDB52B" /><path d="M719.2 403.2l-2.9 82.9 2.9-82.9z" fill="#EEE3D2" /><path d="M733.1 1017.6H315c-24.5 0-47.7-10.6-63.7-29.1s-23.3-43-19.8-67.2L245.9 820c5.9-41.3 41.8-72.4 83.5-72.4h389.2c41.7 0 77.6 31.1 83.5 72.4l14.5 101.3c3.5 24.2-3.8 48.7-19.8 67.2s-39.2 29.1-63.7 29.1zM329.5 781.3c-25 0-46.6 18.7-50.1 43.5L264.9 926c-2.1 14.5 2.2 29.2 11.9 40.3 9.6 11.1 23.6 17.5 38.3 17.5h418.1c14.7 0 28.6-6.4 38.2-17.5 9.6-11.1 14-25.8 11.9-40.3l-14.5-101.3c-3.5-24.8-25.1-43.5-50.1-43.5H329.5z" fill="#353535" /><path d="M524.1 950.1c-37.2 0-67.5-30.3-67.5-67.5s30.3-67.5 67.5-67.5 67.5 30.3 67.5 67.5-30.3 67.5-67.5 67.5z m0-101.3c-18.6 0-33.7 15.1-33.7 33.8 0 18.6 15.1 33.8 33.7 33.8s33.7-15.2 33.7-33.8c0-18.6-15.1-33.8-33.7-33.8zM726.6 781.3h-405c-9.3 0-16.9-7.5-16.9-16.9v-50.6c0-27.9 22.7-50.6 50.6-50.6h337.5c27.9 0 50.6 22.7 50.6 50.6v50.6c0 9.4-7.5 16.9-16.8 16.9z m-388.2-33.7h371.3v-33.8c0-9.3-7.6-16.9-16.9-16.9H355.3c-9.3 0-16.9 7.6-16.9 16.9v33.8z" fill="#353535" /><path d="M644.5 696.9h-241c-45.6 0-82.7-35.7-84.3-81.3l-10.1-278.5-105.7-105.7c-9.7-9.7-12.6-24.1-7.3-36.8 5.2-12.7 17.5-20.8 31.2-20.8h499.3c4.6 0 9 1.9 12.1 5.2 3.2 3.3 4.9 7.7 4.7 12.3l-14.6 424.2c-1.6 45.6-38.6 81.4-84.3 81.4zM227.3 207.5L337.7 318c3 3 4.8 7.1 4.9 11.3l10.3 285.1c1 27.4 23.2 48.8 50.6 48.8h240.9c27.4 0 49.6-21.5 50.6-48.9l14-406.8H227.3z" fill="#353535" /><path d="M726.6 207.5h-405c-9.3 0-16.9-7.6-16.9-16.9v-33.8c0-46.5 37.9-84.4 84.4-84.4h270c46.5 0 84.4 37.9 84.4 84.4v33.8c-0.1 9.4-7.6 16.9-16.9 16.9z m-388.2-33.7h371.3v-16.9c0-27.9-22.7-50.6-50.6-50.6H389c-27.9 0-50.6 22.7-50.6 50.6v16.9z" fill="#353535" /><path d="M608.4 106.3H439.7c-9.3 0-16.9-7.6-16.9-16.9V55.7c0-27.9 22.7-50.6 50.6-50.6h101.3c27.9 0 50.6 22.7 50.6 50.6v33.7c0 9.3-7.5 16.9-16.9 16.9zM456.6 72.5h135V55.7c0-9.3-7.6-16.9-16.9-16.9H473.4c-9.3 0-16.9 7.6-16.9 16.9v16.8zM743.4 578.8h-29.7c-4.6 0-9-1.9-12.1-5.1-3.2-3.3-4.9-7.7-4.7-12.3l10.5-303.8c0.3-9.1 7.8-16.3 16.9-16.3h19.2c46.5 0 84.4 37.9 84.4 84.4v168.8c-0.1 46.4-37.9 84.3-84.5 84.3zM731.2 545h12.2c27.9 0 50.6-22.7 50.6-50.6V325.7c0-27.9-22.7-50.6-50.6-50.6h-2.9L731.2 545zM625.3 865.7h67.5v33.7h-67.5zM355.3 865.7h67.5v33.7h-67.5z" fill="#353535" /><path d="M644.5 696.9h-241c-45.6 0-82.7-35.7-84.3-81.3l-6.1-169.8c-0.3-8.5 5.7-15.8 14-17.2 1.2-0.2 2.4-0.4 3.6-0.5 1.3-0.2 2.5-0.3 3.8-0.6 23-5.4 36-15.5 57.5-32.1 6.3-4.9 13.1-10.1 20.8-15.8 53.8-39.3 96.2-70.3 144.8-70.8h1c30.5 0 48.4 12.6 71 28.5 10.5 7.3 22.3 15.7 37.7 24.4 17.4 9.8 36.7 18.5 57.4 25.7 7 2.4 11.6 9.1 11.3 16.5l-7.3 211.7c-1.5 45.5-38.5 81.3-84.2 81.3z m-297.2-238l5.6 155.4c1 27.4 23.2 48.8 50.6 48.8h240.9c27.4 0 49.6-21.5 50.6-48.9l6.9-199.4c-18.2-7-35.4-15-51.2-23.9-16.8-9.5-29.4-18.3-40.5-26.1-20.5-14.4-31.8-22.3-51.6-22.3-38.4 0.3-75.1 27.1-125.8 64.2-7.6 5.5-14.1 10.6-20.2 15.3-21.2 16.4-38.2 29.5-65.3 36.9z" fill="#353535" /><path d="M540.9 393.2h33.8v101.3h-33.8zM540.9 528.2h33.8v33.7h-33.8zM625.3 443.8h33.8v101.3h-33.8zM625.3 578.8h33.8v33.7h-33.8z" fill="#353535" /></svg>