<?xml version="1.0" standalone="no"?><!DOCTYPE svg PUBLIC "-//W3C//DTD SVG 1.1//EN" "http://www.w3.org/Graphics/SVG/1.1/DTD/svg11.dtd"><svg class="icon" width="200px" height="200.00px" viewBox="0 0 1024 1024" version="1.1" xmlns="http://www.w3.org/2000/svg"><path d="M643.6 289.9H939V83.1H643.6v206.8z m206.8-133c16.3 0 29.6 13.2 29.6 29.5S866.8 216 850.4 216c-16.3 0-29.5-13.2-29.5-29.6 0-16.3 13.2-29.5 29.5-29.5m-73.9 29.6H747h29.5z m-59.1 0h-29.5 29.5zM377.6 83.1H82.1v206.8h295.5V83.1zM170.8 216c-16.3 0-29.6-13.2-29.6-29.6 0-16.3 13.2-29.5 29.6-29.5 16.3 0 29.6 13.2 29.6 29.5-0.1 16.4-13.3 29.6-29.6 29.6m73.9-29.5h29.5-29.5z m59.1 0h29.6-29.6z" fill="#58B09A" /><path d="M170.8 156.9c-16.3 0-29.6 13.2-29.6 29.6 0 16.3 13.2 29.6 29.6 29.6 16.3 0 29.6-13.2 29.6-29.6-0.1-16.4-13.3-29.6-29.6-29.6M850.4 216c16.3 0 29.6-13.2 29.6-29.6 0-16.3-13.2-29.5-29.6-29.5-16.3 0-29.5 13.2-29.5 29.5 0 16.4 13.2 29.6 29.5 29.6" fill="#EEE3D2" /><path d="M643.6 83.1h-266v206.8h265.9V83.1zM495.8 216h29.6-29.6z m73.9 0h29.6-29.6z m29.5-59.1H421.9h177.3zM451.5 216h-29.6 29.6z" fill="#EDB52B" /><path d="M377.6 289.9H82.1V940H939V289.9H377.6z m472.8 147.7v398.9H170.8V363.7h679.6v73.9z" fill="#67C1B2" /><path d="M170.8 836.6h679.6v-399H170.8v399z m162.5-88.7l44.3-44.3-44.3 44.3z m147.7 0l44.3-44.3-44.3 44.3z m147.8 0l44.3-44.3-44.3 44.3z m44.3-221.6l-44.3 44.3 44.3-44.3z m-147.7 0L481 570.6l44.4-44.3z m-147.8 0l-44.3 44.3 44.3-44.3z m428.5 118.2h-591 591z" fill="#EEE3D2" /><path d="M170.8 363.8h679.6v73.9H170.8z" fill="#EEE3D2" /><path d="M939 304.7H82.1c-8.2 0-14.8-6.6-14.8-14.8V83.1c0-8.2 6.6-14.8 14.8-14.8H939c8.2 0 14.8 6.6 14.8 14.8v206.8c0 8.2-6.6 14.8-14.8 14.8zM96.9 275.1h827.4V97.8H96.9v177.3z" fill="#353535" /><path d="M170.8 230.8c-24.4 0-44.3-19.9-44.3-44.3s19.9-44.3 44.3-44.3 44.3 19.9 44.3 44.3-19.9 44.3-44.3 44.3z m0-59.1c-8.1 0-14.8 6.6-14.8 14.8 0 8.1 6.6 14.8 14.8 14.8 8.1 0 14.8-6.6 14.8-14.8 0-8.2-6.7-14.8-14.8-14.8zM850.4 230.8c-24.4 0-44.3-19.9-44.3-44.3s19.9-44.3 44.3-44.3 44.3 19.9 44.3 44.3-19.9 44.3-44.3 44.3z m0-59.1c-8.1 0-14.8 6.6-14.8 14.8 0 8.1 6.6 14.8 14.8 14.8 8.1 0 14.8-6.6 14.8-14.8 0-8.2-6.7-14.8-14.8-14.8zM643.6 304.7h-266c-8.2 0-14.8-6.6-14.8-14.8V83.1c0-8.2 6.6-14.8 14.8-14.8h265.9c8.2 0 14.8 6.6 14.8 14.8v206.8c0 8.2-6.6 14.8-14.7 14.8z m-251.2-29.6h236.4V97.8H392.4v177.3zM244.6 171.7h29.5v29.6h-29.5zM303.8 171.7h29.6v29.6h-29.6zM687.9 171.7h29.5v29.6h-29.5zM747 171.7h29.5v29.6H747z" fill="#353535" /><path d="M421.9 201.2h29.6v29.6h-29.6zM495.8 201.2h29.6v29.6h-29.6zM569.7 201.2h29.6v29.6h-29.6zM421.9 142.2h177.3v29.6H421.9zM850.4 851.3H170.8c-8.2 0-14.8-6.6-14.8-14.8V437.6c0-8.2 6.6-14.8 14.8-14.8h679.6c8.2 0 14.8 6.6 14.8 14.8v398.9c0 8.2-6.6 14.8-14.8 14.8z m-664.8-29.5h650.1V452.4H185.6v369.4z" fill="#353535" /><path d="M215.1 629.7h591v29.5h-591zM343.8 581.1l-20.9-20.9 44.3-44.4 20.9 20.9zM491.5 581.1l-20.9-20.9 44.3-44.4 20.9 20.9zM639.2 581.1l-20.9-20.9 44.4-44.4 20.9 20.9zM343.8 758.4l-20.9-20.9 44.3-44.4 20.9 20.9zM491.5 758.4l-20.9-20.9 44.3-44.4 20.9 20.9zM639.2 758.4l-20.9-20.9 44.4-44.4 20.9 20.9z" fill="#353535" /><path d="M939 954.7H82.1c-8.2 0-14.8-6.6-14.8-14.8v-650c0-8.2 6.6-14.8 14.8-14.8H939c8.2 0 14.8 6.6 14.8 14.8V940c0 8.1-6.6 14.7-14.8 14.7zM96.9 925.2h827.4V304.7H96.9v620.5z" fill="#353535" /><path d="M850.4 452.4H170.8c-8.2 0-14.8-6.6-14.8-14.8v-73.9c0-8.2 6.6-14.8 14.8-14.8h679.6c8.2 0 14.8 6.6 14.8 14.8v73.9c0 8.2-6.6 14.8-14.8 14.8z m-664.8-29.5h650.1v-44.3H185.6v44.3z" fill="#353535" /></svg>