<?xml version="1.0" standalone="no"?><!DOCTYPE svg PUBLIC "-//W3C//DTD SVG 1.1//EN" "http://www.w3.org/Graphics/SVG/1.1/DTD/svg11.dtd"><svg class="icon" width="200px" height="200.00px" viewBox="0 0 1024 1024" version="1.1" xmlns="http://www.w3.org/2000/svg"><path d="M603.8 357.1c-5.6 0.8-11.1 1.5-16.6 2.5 5.5-1 11-1.7 16.6-2.5M572.4 363.2c-4.1 1-8.1 2-12.1 3.1 4-1.2 8.1-2.1 12.1-3.1M543.6 371.9c-3 1.1-6 2.1-8.9 3.3 3-1.2 5.9-2.3 8.9-3.3M644.6 354c-9.9 0-19.6 0.5-29.2 1.5 9.6-0.9 19.3-1.5 29.2-1.5M346.9 627.8c-0.8 8.3-1.3 16.7-1.3 25.2 0-8.5 0.6-16.8 1.3-25.2M349.5 607.2c-0.5 3.3-1.1 6.5-1.5 9.8 0.4-3.3 0.9-6.5 1.5-9.8M348 689c0.4 3.3 1 6.6 1.5 9.8-0.5-3.2-1.1-6.4-1.5-9.8M468.5 411.8c-0.6 0.4-1.1 0.8-1.7 1.3 0.6-0.5 1.1-0.9 1.7-1.3M390.3 809.8c0.1 0.1 0.2 0.3 0.2 0.4 0-0.2-0.1-0.3-0.2-0.4M491.7 396.4c-1.2 0.7-2.5 1.5-3.7 2.3 1.2-0.8 2.4-1.5 3.7-2.3M516.7 383.1c-2 1-4.1 1.9-6.1 2.9 2-1 4.1-2 6.1-2.9M390.5 495.9c-0.1 0.1-0.1 0.2-0.2 0.4 0.1-0.1 0.2-0.2 0.2-0.4M345.6 653c0 8.5 0.5 16.9 1.3 25.2-0.7-8.3-1.3-16.6-1.3-25.2" fill="#EEE3D2" /><path d="M390.5 810.2c-0.1-0.1-0.1-0.3-0.2-0.4-15.5-25.1-27.4-52.6-34.9-82H76.5c0 82.6 66.9 149.5 149.5 149.5h221.3c-22.1-19.4-41.2-42-56.8-67.1" fill="#EEE3D2" /><path d="M349.5 698.9c-0.5-3.3-1.1-6.5-1.5-9.8-0.4-3.6-0.8-7.2-1.1-10.8-0.8-8.3-1.3-16.7-1.3-25.2s0.5-16.9 1.3-25.2c0.3-3.6 0.7-7.2 1.1-10.8 0.4-3.3 1-6.6 1.5-9.8 1.5-9.8 3.5-19.4 5.9-28.9H76.5c0 82.6 66.9 149.5 149.5 149.5h129.4c-2.5-9.6-4.4-19.2-5.9-29M390.3 496.3c0.1-0.1 0.1-0.2 0.2-0.4 15.6-25.1 34.7-47.7 56.7-67.2H76.5c0 82.6 66.9 149.5 149.5 149.5h129.4c7.6-29.2 19.4-56.8 34.9-81.9" fill="#EEE3D2" /><path d="M466.8 413c0.6-0.4 1.1-0.9 1.7-1.3 6.3-4.6 12.8-9 19.4-13.1 1.2-0.8 2.5-1.5 3.7-2.2 6.2-3.7 12.5-7.2 18.9-10.4 2-1 4.1-2 6.1-2.9 5.9-2.8 11.9-5.5 18-7.9 2.9-1.2 5.9-2.2 8.9-3.3 5.5-2 11-3.9 16.7-5.6 4-1.2 8.1-2.1 12.1-3.1 4.9-1.2 9.8-2.5 14.8-3.5 5.5-1.1 11-1.8 16.6-2.5 3.9-0.5 7.7-1.2 11.6-1.6 9.6-1 19.4-1.5 29.2-1.5 3.2 0 6.3 0.4 9.5 0.5 12.9-22.1 20.5-47.8 20.5-75.2h-598c0 82.6 66.9 149.5 149.5 149.5h221.3c6.3-5.7 12.8-10.9 19.5-15.9" fill="#EDB52B" /><path d="M654 354.5c-3.2-0.1-6.3-0.5-9.4-0.5-9.9 0-19.6 0.5-29.2 1.5-3.9 0.4-7.7 1.1-11.6 1.6-5.6 0.8-11.1 1.5-16.6 2.5-5 1-9.9 2.3-14.8 3.5-4.1 1-8.1 2-12.1 3.1-5.7 1.7-11.2 3.6-16.7 5.6-3 1.1-6 2.1-8.9 3.3-6.1 2.4-12.1 5.1-18 7.9-2 1-4.1 1.9-6.1 2.9-6.5 3.3-12.8 6.7-18.9 10.4-1.3 0.7-2.5 1.5-3.7 2.2-6.6 4.1-13.2 8.5-19.4 13.1-0.6 0.4-1.1 0.8-1.7 1.3-6.7 5-13.3 10.2-19.5 15.8-22.1 19.4-41.2 42.1-56.7 67.2-0.1 0.1-0.1 0.2-0.2 0.4-15.5 25.1-27.4 52.7-34.9 82-2.5 9.5-4.4 19.1-5.9 28.9-0.5 3.3-1.1 6.5-1.5 9.9-0.5 3.6-0.8 7.2-1.1 10.8-0.7 8.3-1.3 16.7-1.3 25.2s0.6 16.9 1.3 25.2c0.3 3.6 0.6 7.2 1.1 10.8 0.4 3.3 1 6.6 1.5 9.8 1.6 9.8 3.5 19.5 5.9 28.9 7.6 29.3 19.4 56.9 34.9 82 0.1 0.1 0.1 0.3 0.2 0.4 15.5 25.1 34.7 47.7 56.7 67.2 52.7 46.4 121.6 74.8 197.3 74.8 165.1 0 299-133.9 299-299-0.1-162.1-128.9-293.7-289.7-298.7m-9.4 418.2C578.5 772.7 525 719.1 525 653c0-66 53.5-119.6 119.6-119.6S764.2 586.9 764.2 653s-53.5 119.7-119.6 119.7" fill="#EEE3D2" /><path d="M390.5 810.2c15.6 25.1 34.7 47.7 56.7 67.1-22-19.4-41.1-42.1-56.7-67.1M390.3 809.8c-15.5-25.1-27.3-52.6-34.9-82 7.6 29.3 19.4 56.9 34.9 82M346.9 678.3c0.3 3.6 0.7 7.2 1.1 10.8-0.5-3.6-0.8-7.2-1.1-10.8M348 617c-0.4 3.6-0.8 7.2-1.1 10.8 0.3-3.6 0.6-7.2 1.1-10.8M355.4 727.8c-2.4-9.5-4.3-19.1-5.9-28.9 1.5 9.8 3.4 19.4 5.9 28.9M349.5 607.2c1.6-9.8 3.5-19.4 5.9-28.9-2.5 9.5-4.4 19.1-5.9 28.9M390.5 495.9c15.5-25.1 34.7-47.7 56.7-67.2-22 19.5-41.1 42.1-56.7 67.2M355.4 578.3c7.6-29.3 19.4-56.9 34.9-82-15.5 25.1-27.3 52.6-34.9 82M534.7 375.1c-6.1 2.4-12.1 5.1-18 7.9 5.9-2.7 11.9-5.4 18-7.9M587.2 359.7c-5 1-9.9 2.3-14.8 3.5 4.9-1.3 9.8-2.6 14.8-3.5M654 354.5c-3.2-0.1-6.3-0.5-9.5-0.5 3.3 0 6.4 0.4 9.5 0.5M560.3 366.3c-5.7 1.7-11.2 3.6-16.7 5.6 5.5-2 11-3.9 16.7-5.6M615.4 355.5c-3.9 0.4-7.7 1.1-11.6 1.6 3.8-0.5 7.6-1.2 11.6-1.6M447.3 428.8c6.3-5.5 12.8-10.8 19.5-15.8-6.7 5-13.2 10.2-19.5 15.8M510.6 386c-6.5 3.3-12.8 6.7-18.9 10.4 6.1-3.7 12.4-7.1 18.9-10.4M488 398.7c-6.7 4.1-13.1 8.4-19.4 13.1 6.2-4.7 12.7-9 19.4-13.1M644.6 533.4C578.5 533.4 525 587 525 653s53.5 119.6 119.6 119.6S764.2 719 764.2 653s-53.5-119.6-119.6-119.6M674.5 129.8h-598c0 82.6 66.9 149.5 149.5 149.5h299c82.6 0 149.5-67 149.5-149.5" fill="#EEE3D2" /><path d="M447.3 892.3H226c-90.7 0-164.5-73.8-164.5-164.5 0-8.3 6.7-15 15-15h278.9c6.8 0 12.8 4.6 14.5 11.2 14.2 55.1 44.4 104.2 87.3 142 4.7 4.1 6.3 10.7 4.1 16.5-2.2 5.9-7.8 9.8-14 9.8zM92.2 742.8c7.5 67.2 64.6 119.6 133.7 119.6h185C380 828 357.2 787.3 344 742.8H92.2z" fill="#353535" /><path d="M355.4 742.8H226c-90.7 0-164.5-73.8-164.5-164.5 0-8.3 6.7-15 15-15h278.9c4.6 0 9 2.1 11.8 5.8 2.8 3.7 3.8 8.4 2.7 12.9-6.2 24-9.3 47.9-9.3 71s3.1 47 9.3 71c1.2 4.5 0.2 9.2-2.7 12.9-2.8 3.7-7.2 5.9-11.8 5.9zM92.3 593.2c7.5 67.2 64.6 119.6 133.7 119.6h110.7c-4-20.2-6-40.2-6-59.8s2-39.6 6-59.8H92.3z" fill="#353535" /><path d="M355.4 593.2H226c-90.7 0-164.5-73.8-164.5-164.5 0-8.3 6.7-15 15-15h370.8c6.2 0 11.8 3.9 14 9.7 2.2 5.8 0.6 12.4-4.1 16.5-42.9 37.8-73.1 86.9-87.3 142-1.7 6.7-7.7 11.3-14.5 11.3zM92.2 443.7c7.5 67.2 64.6 119.6 133.7 119.6h118c13.2-44.5 36-85.2 66.9-119.6H92.2z" fill="#353535" /><path d="M447.3 443.7H226c-90.7 0-164.5-73.8-164.5-164.5 0-8.3 6.7-15 15-15h598c8.3 0 15 6.7 15 15 0 29-7.8 57.6-22.5 82.8-2.8 4.7-8 7.5-13.4 7.4-1.5 0-3.1-0.2-4.6-0.3-1.5-0.1-2.9-0.2-4.4-0.2-68.9 0-135.4 25.2-187.4 71-2.8 2.5-6.3 3.8-9.9 3.8zM92.2 294.2c7.5 67.2 64.6 119.6 133.7 119.6h215.7c56.8-48.3 128.6-74.8 202.9-74.8h0.8c7-14.1 11.5-29.3 13.3-44.9H92.2z" fill="#353535" /><path d="M644.6 967c-173.1 0-314-140.8-314-314 0-173.1 140.8-314 314-314 173.1 0 314 140.8 314 314s-140.9 314-314 314z m0-598C488 369 360.5 496.4 360.5 653s127.4 284 284.1 284c156.6 0 284.1-127.4 284.1-284S801.2 369 644.6 369z" fill="#353535" /><path d="M644.6 787.6C570.4 787.6 510 727.2 510 653s60.4-134.6 134.6-134.6S779.2 578.9 779.2 653s-60.4 134.6-134.6 134.6z m0-239.2c-57.7 0-104.6 47-104.6 104.7s46.9 104.6 104.6 104.6c57.7 0 104.7-46.9 104.7-104.6s-47-104.7-104.7-104.7zM868.9 84.9h89.7v29.9h-89.7z" fill="#353535" /><path d="M898.8 55h29.9v89.7h-29.9zM764.2 234.4h89.7v29.9h-89.7z" fill="#353535" /><path d="M794.1 204.5H824v89.7h-29.9zM525 294.2H226c-90.7 0-164.5-73.8-164.5-164.5 0-8.3 6.7-15 15-15h598c8.3 0 15 6.7 15 15 0 90.8-73.8 164.5-164.5 164.5zM92.2 144.7c7.5 67.2 64.6 119.6 133.7 119.6h299c69.1 0 126.3-52.4 133.7-119.6H92.2z" fill="#353535" /></svg>