<?xml version="1.0" standalone="no"?><!DOCTYPE svg PUBLIC "-//W3C//DTD SVG 1.1//EN" "http://www.w3.org/Graphics/SVG/1.1/DTD/svg11.dtd"><svg class="icon" width="200px" height="200.00px" viewBox="0 0 1024 1024" version="1.1" xmlns="http://www.w3.org/2000/svg"><path d="M116.3 621.6L64.4 865.2c-5.6 20.1 9.5 39.9 30.4 39.9h830.7c20.8 0 35.9-19.9 30.4-39.9L904 621.6H116.3z m645.8 157.5v-63c0-17.4 14.1-31.5 31.5-31.5s31.5 14.1 31.5 31.5v94.5c0 17.4-14.1 31.5-31.5 31.5s-31.5-14.1-31.5-31.5v-31.5z m-157.5-94.5c43.5 0 78.8 35.3 78.8 78.8s-35.3 78.8-78.8 78.8-78.7-35.3-78.7-78.8c-0.1-43.5 35.2-78.8 78.7-78.8m-141.8 78.8h-63 63z m-110.2 0h-63 63z m-110.3 0h-63 63z" fill="#67C1B2" /><path d="M53.3 432.6v31.5c0 17.4 14.1 31.5 31.5 31.5h15.8l8.9 70.8c3.9 31.5 30.7 55.2 62.5 55.2h676.3c31.8 0 58.6-23.7 62.5-55.2l8.9-70.8h15.8c17.4 0 31.5-14.1 31.5-31.5v-31.5H53.3z" fill="#EEE3D2" /><path d="M100.6 243.6H53.3v31.5c0 17.4 14.1 31.5 31.5 31.5h15.8l8.9 70.8c3.9 31.5 30.7 55.2 62.5 55.2h676.3c31.8 0 58.6-23.7 62.5-55.2l8.9-70.8h15.8c17.4 0 31.5-14.1 31.5-31.5v-31.5H100.6zM919.6 212.1c0-34.8-28.2-63-63-63h-693c-34.8 0-63 28.2-63 63v31.5h819v-31.5z" fill="#EDB52B" /><path d="M793.6 842.1c17.4 0 31.5-14.1 31.5-31.5v-31.5h-63v31.5c0 17.5 14.1 31.5 31.5 31.5M825.1 716.1c0-17.4-14.1-31.5-31.5-31.5s-31.5 14.1-31.5 31.5v63h63v-63zM604.6 842.2c43.5 0 78.8-35.3 78.8-78.8s-35.3-78.8-78.8-78.8-78.7 35.3-78.7 78.8c-0.1 43.5 35.2 78.8 78.7 78.8m31.5-110.3l-63 63 63-63zM147.8 936.6c0 17.4 14.1 31.5 31.5 31.5h31.5c17.4 0 31.5-14.1 31.5-31.5v-31.5h-94.5v31.5zM777.8 936.6c0 17.4 14.1 31.5 31.5 31.5h31.5c17.4 0 31.5-14.1 31.5-31.5v-31.5h-94.5v31.5z" fill="#EEE3D2" /><path d="M925.4 920.9H94.8c-14.9 0-28.6-6.8-37.6-18.7-8.9-11.7-11.8-26.5-8-40.7L101 618.3c1.6-7.3 8-12.5 15.4-12.5h787.5c7.4 0 13.9 5.2 15.4 12.5l51.8 243.2c3.8 14.2 0.9 29-8.1 40.7-9 11.9-22.7 18.7-37.6 18.7zM129.1 637.4L79.8 868.5c-0.1 0.3-0.1 0.6-0.2 0.9-1.3 4.8-0.4 9.8 2.6 13.7 3 4 7.6 6.2 12.5 6.2h830.6c5 0 9.5-2.3 12.5-6.2 3-4 4-9 2.6-13.8-0.1-0.3-0.2-0.6-0.2-0.9l-49.3-231.1H129.1z" fill="#353535" /><path d="M848.2 637.4H171.9c-39.6 0-73.2-29.7-78.1-69l-7.1-57h-1.8c-26.1 0-47.2-21.2-47.2-47.3v-31.5c0-8.7 7.1-15.8 15.8-15.8H967c8.7 0 15.8 7.1 15.8 15.8v31.5c0 26.1-21.2 47.3-47.3 47.3h-1.9l-7.1 57c-5 39.3-38.6 69-78.3 69z m-779.1-189v15.7c0 8.7 7.1 15.8 15.7 15.8h15.8c7.9 0 14.6 5.9 15.6 13.8l8.9 70.8c3 23.6 23.1 41.4 46.9 41.4h676.3c23.8 0 43.9-17.8 46.9-41.4l8.9-70.8c1-7.9 7.7-13.8 15.6-13.8h15.8c8.7 0 15.8-7.1 15.8-15.8v-15.7H69.1z" fill="#353535" /><path d="M848.2 448.4H171.9c-39.6 0-73.2-29.7-78.1-69l-7.1-57h-1.8c-26.1 0-47.2-21.2-47.2-47.3v-31.5c0-8.7 7.1-15.8 15.8-15.8H967c8.7 0 15.8 7.1 15.8 15.8v31.5c0 26.1-21.2 47.3-47.3 47.3h-1.9l-7.1 57c-5 39.3-38.6 69-78.3 69z m-779.1-189v15.7c0 8.7 7.1 15.7 15.7 15.7h15.8c7.9 0 14.6 5.9 15.6 13.8l8.9 70.8c3 23.6 23.1 41.4 46.9 41.4h676.3c23.8 0 43.9-17.8 46.9-41.4l8.9-70.8c1-7.9 7.7-13.8 15.6-13.8h15.8c8.7 0 15.8-7.1 15.8-15.7v-15.7H69.1z" fill="#353535" /><path d="M919.6 259.4h-819c-8.7 0-15.8-7.1-15.8-15.8v-31.5c0-43.4 35.3-78.8 78.7-78.8h693c43.4 0 78.7 35.3 78.7 78.8v31.5c0.1 8.7-6.9 15.8-15.6 15.8z m-803.3-31.5h787.5v-15.8c0-26.1-21.2-47.3-47.2-47.3h-693c-26 0-47.2 21.2-47.2 47.3v15.8z" fill="#353535" /><path d="M636.1 164.9h-252c-8.7 0-15.8-7.1-15.8-15.8v-31.5c0-43.4 35.3-78.8 78.8-78.8h126c43.4 0 78.8 35.3 78.8 78.8v31.5c0 8.7-7.1 15.8-15.8 15.8z m-236.3-31.5h220.5v-15.8c0-26-21.2-47.2-47.3-47.2H447c-26.1 0-47.3 21.2-47.3 47.2v15.8zM179.3 747.6h63v31.5h-63zM289.6 747.6h63v31.5h-63zM399.8 747.6h63v31.5h-63zM793.6 857.9c-26.1 0-47.3-21.2-47.3-47.3v-94.5c0-26 21.2-47.2 47.3-47.2 26 0 47.3 21.2 47.3 47.2v94.5c0 26.1-21.3 47.3-47.3 47.3z m0-157.5c-8.7 0-15.8 7.1-15.8 15.7v94.5c0 8.7 7.1 15.7 15.8 15.7 8.7 0 15.7-7.1 15.7-15.7v-94.5c0-8.6-7-15.7-15.7-15.7zM604.6 857.9c-52.1 0-94.5-42.4-94.5-94.5s42.4-94.5 94.5-94.5 94.5 42.4 94.5 94.5-42.4 94.5-94.5 94.5z m0-157.5c-34.7 0-63 28.3-63 63s28.3 63 63 63 63-28.3 63-63-28.3-63-63-63z" fill="#353535" /><path d="M584.2 806L562 783.8l63-63 22.2 22.2zM210.8 983.9h-31.5c-26.1 0-47.3-21.2-47.3-47.3v-31.5c0-8.7 7.1-15.8 15.8-15.8h94.5c8.7 0 15.8 7.1 15.8 15.8v31.5c0 26.1-21.2 47.3-47.3 47.3z m-47.2-63v15.7c0 8.7 7.1 15.8 15.8 15.8h31.5c8.7 0 15.7-7.1 15.7-15.8v-15.7h-63zM840.9 983.9h-31.5c-26.1 0-47.3-21.2-47.3-47.3v-31.5c0-8.7 7.1-15.8 15.8-15.8h94.5c8.7 0 15.8 7.1 15.8 15.8v31.5c-0.1 26.1-21.3 47.3-47.3 47.3z m-47.3-63v15.7c0 8.7 7.1 15.8 15.8 15.8h31.5c8.7 0 15.7-7.1 15.7-15.8v-15.7h-63zM762.1 763.4h63v31.5h-63z" fill="#353535" /></svg>