<?xml version="1.0" standalone="no"?><!DOCTYPE svg PUBLIC "-//W3C//DTD SVG 1.1//EN" "http://www.w3.org/Graphics/SVG/1.1/DTD/svg11.dtd"><svg class="icon" width="200px" height="200.00px" viewBox="0 0 1024 1024" version="1.1" xmlns="http://www.w3.org/2000/svg"><path d="M930.3 588.9H370.5c-17.2 0-31.1 13.9-31.1 31.1v31.1H961.4V620c0-17.2-13.9-31.1-31.1-31.1" fill="#67C1B2" /><path d="M790.4 433.4h-280c-51.5 0-93.3-41.8-93.3-93.3V485.8c14.8-3.6 30.4-5.9 46.7-5.8 67.4 0.1 77.1 36.3 155.5 46.6 105.6 14 143.4-44.3 248.8-31.1 5.4 0.7 10.4 1.8 15.5 2.7V340.1c0.1 51.5-41.7 93.3-93.2 93.3" fill="#EEE3D2" /><path d="M417.1 277.9V309h466.5v-31.1c0-17.2-13.9-31.1-31.1-31.1H448.2c-17.1 0-31.1 13.9-31.1 31.1" fill="#67C1B2" /><path d="M417.1 340.1c0 51.5 41.8 93.3 93.3 93.3h279.9c51.5 0 93.3-41.8 93.3-93.3V309H417.1v31.1z m373.3 31.1h-93.3 93.3z m-186.6 0h-93.3 93.3z" fill="#58B09A" /><path d="M899.2 682.2c0 51.5-41.8 93.3-93.3 93.3h-311c-51.5 0-93.3-41.8-93.3-93.3v-31.1h-62.2v227.5c34.1-22.6 76.2-41 124.4-40.9 67.4 0.1 77.1 36.3 155.5 46.7 105.6 14 143.4-44.3 248.8-31.1 37.4 4.7 68.8 16.6 93.3 28.9V651.1h-62.2v31.1z" fill="#EEE3D2" /><path d="M494.9 775.5h311c51.5 0 93.3-41.8 93.3-93.3v-31.1H401.6v31.1c0 51.5 41.8 93.3 93.3 93.3m326.6-62.2H697.1h124.4z m-217.7 0H479.3h124.5z" fill="#58B09A" /><path d="M619.3 884.4c-78.4-10.4-88.1-46.5-155.5-46.7-48.2-0.1-90.3 18.4-124.4 40.9v21.3c0 34.3 27.8 62.2 62.2 62.2h497.6c34.4 0 62.2-27.9 62.2-62.2v-17.8c-24.5-12.3-55.9-24.2-93.3-28.9-105.4-13.1-143.2 45.1-248.8 31.2m-186.6 31.1v-31.1 31.1z m62.2 0v-31.1 31.1z m326.6-15.6h31.1-31.1zM619.3 526.7c-78.4-10.4-88.1-46.5-155.5-46.7-16.3 0-31.8 2.2-46.7 5.9v40.8c0 34.3 27.9 62.2 62.2 62.2h342.1c34.4 0 62.2-27.9 62.2-62.2v-28.4c-5.2-1-10.1-2.1-15.5-2.8-105.4-13.1-143.2 45.2-248.8 31.2" fill="#EDB52B" /><path d="M59.5 60.2h622v124.4h-622z" fill="#67C1B2" /><path d="M681.5 246.8v-62.2h-622v62.2h388.7z" fill="#58B09A" /><path d="M131.4 684.3c-1 0.2-1.9 0.4-2.9 0.6 1-0.2 1.9-0.4 2.9-0.6M246.1 760c0 2.5 0.2 4.9 0.4 7.3-0.2-2.4-0.4-4.9-0.4-7.3M246.1 760c0 2.5-0.2 5.1-0.5 7.5 0.3-2.5 0.5-5 0.5-7.5M142 682.8c-1 0.1-2 0.2-2.9 0.4 1-0.2 1.9-0.4 2.9-0.4M120.8 687l-2.1 0.6 2.1-0.6" fill="#EEE3D2" /><path d="M109.4 691.1c-2.1-7.9-3.3-16.1-3.3-24.5 0-60.1 55.7-108.9 124.4-108.9 47.3 0 88.4 23.2 109.4 57.2-0.3 1.6-0.5 3.3-0.5 5 0-17.2 13.9-31.1 31.1-31.1h108.9c-34.4 0-62.2-27.8-62.2-62.2V480h-280V355.6h279.9v-77.7c0-17.2 13.9-31.1 31.1-31.1H59.5V760c0-29.9 20.2-55.9 49.9-68.9M59.5 760v77.8h93.3c-51.5-0.1-93.3-34.9-93.3-77.8M247.7 774.3c-1.1 0.2-2.2 0.4-3.4 0.5-8.3 35.8-46.1 62.9-91.6 62.9h186.6c-45.6 0-83.5-27.3-91.6-63.4" fill="#EEE3D2" /><path d="M244.3 774.8c0.6-2.4 1-4.8 1.3-7.3 0.3-2.5 0.5-5 0.5-7.5 0-42.9-41.8-77.8-93.3-77.8-3.6 0-7.2 0.2-10.7 0.6-1 0.1-2 0.3-2.9 0.4-2.6 0.3-5.2 0.7-7.7 1.2-1 0.2-1.9 0.4-2.9 0.6-2.6 0.6-5.2 1.3-7.8 2l-2.1 0.6c-3.2 1-6.3 2.2-9.3 3.5-29.7 13-49.9 38.9-49.9 68.8 0 42.9 41.8 77.8 93.3 77.8 45.4 0 83.2-27.1 91.5-62.9m-122.6 16.3V760v31.1z m46.6-31.1v-31.1V760z" fill="#EDB52B" /><path d="M246.1 760c0 2.5 0.2 4.9 0.4 7.3 0.3 2.4 0.7 4.7 1.2 7 8.1 36.1 46 63.4 91.6 63.4V682.2c-51.4 0-93.2 34.8-93.2 77.8" fill="#EDB52B" /><path d="M244.3 774.8c1.2-0.1 2.2-0.4 3.4-0.5-0.5-2.3-0.9-4.6-1.2-7-0.3-2.4-0.4-4.8-0.4-7.3 0 2.5-0.2 5.1-0.5 7.6-0.3 2.4-0.7 4.8-1.3 7.2" fill="#EEE3D2" /><path d="M244.3 774.8c0.6-2.4 1-4.8 1.3-7.3-0.3 2.5-0.7 4.9-1.3 7.3M246.5 767.3c0.3 2.4 0.7 4.7 1.2 7-0.5-2.3-0.9-4.7-1.2-7" fill="#EEE3D2" /><path d="M230.5 557.8c-68.7 0-124.4 48.7-124.4 108.9 0 8.4 1.2 16.6 3.3 24.5 3-1.3 6.1-2.5 9.3-3.5l2.1-0.6c2.5-0.8 5.1-1.5 7.8-2 1-0.2 1.9-0.4 2.9-0.6 2.5-0.5 5.1-0.9 7.7-1.2 1-0.1 1.9-0.3 2.9-0.4 3.5-0.3 7.1-0.5 10.7-0.5 51.5 0 93.3 34.8 93.3 77.8 0-42.9 41.8-77.8 93.3-77.8V620c0-1.7 0.2-3.4 0.5-5-21-34-62-57.2-109.4-57.2M215 635.5v-31.1 31.1z m62.2 15.6V620v31.1z" fill="#EDB52B" /><path d="M118.7 687.6c-3.2 1-6.3 2.2-9.3 3.5 3-1.3 6.1-2.4 9.3-3.5M152.8 682.2c-3.6 0-7.2 0.2-10.7 0.5 3.5-0.3 7-0.5 10.7-0.5M128.5 684.9c-2.6 0.6-5.2 1.3-7.8 2 2.6-0.7 5.2-1.4 7.8-2M137.2 355.6h279.9V480H137.2z" fill="#EEE3D2" /><path d="M961.4 666.6h-622c-8.6 0-15.6-7-15.6-15.6v-31c0-25.7 20.9-46.7 46.6-46.7h559.8c25.7 0 46.6 20.9 46.6 46.7v31.1c0.2 8.6-6.8 15.5-15.4 15.5z m-606.5-31.1h590.9V620c0-8.6-7-15.5-15.5-15.5H370.5c-8.6 0-15.5 7-15.5 15.5v15.5z" fill="#353535" /><path d="M899.2 977.7H401.6c-42.9 0-77.8-34.9-77.8-77.8V651.1c0-8.6 7-15.6 15.6-15.6h622c8.6 0 15.5 7 15.5 15.6v248.8c0.1 42.9-34.8 77.8-77.7 77.8z m-544.3-311V900c0 25.7 20.9 46.7 46.7 46.7h497.6c25.7 0 46.7-20.9 46.7-46.7V666.7h-591z" fill="#353535" /><path d="M805.9 791.1h-311c-60 0-108.9-48.8-108.9-108.9v-31.1c0-8.6 7-15.5 15.6-15.5h497.6c8.6 0 15.6 7 15.6 15.5v31.1c0 60-48.9 108.9-108.9 108.9zM417.1 666.6v15.5c0 42.9 34.9 77.8 77.8 77.8h311c42.9 0 77.7-34.9 77.7-77.8v-15.5H417.1z" fill="#353535" /><path d="M479.3 697.7h124.4v31.1H479.3zM697.1 697.7h124.4v31.1H697.1zM821.5 604.4H479.3c-42.9 0-77.7-34.9-77.7-77.8V309c0-8.6 7-15.6 15.6-15.6h466.5c8.6 0 15.6 7 15.6 15.6v217.7c-0.1 42.9-35 77.7-77.8 77.7zM432.7 324.5v202.1c0 25.7 20.9 46.7 46.6 46.7h342.1c25.7 0 46.6-20.9 46.6-46.7V324.5H432.7z" fill="#353535" /><path d="M883.7 324.5H417.1c-8.6 0-15.6-7-15.6-15.6v-31.1c0-25.7 20.9-46.7 46.7-46.7h404.3c25.7 0 46.7 20.9 46.7 46.7V309c0 8.6-7 15.5-15.5 15.5z m-451-31.1h435.4v-15.6c0-8.6-7-15.6-15.5-15.6H448.2c-8.6 0-15.6 7-15.6 15.6v15.6z" fill="#353535" /><path d="M790.4 448.9h-280c-60 0-108.9-48.8-108.9-108.9v-31c0-8.6 7-15.6 15.6-15.6h466.5c8.6 0 15.6 7 15.6 15.6v31.1c0 60-48.8 108.8-108.8 108.8zM432.7 324.5v15.6c0 42.9 34.9 77.8 77.8 77.8h279.9c42.9 0 77.8-34.9 77.8-77.8v-15.6H432.7z" fill="#353535" /><path d="M510.4 355.6h93.3v31.1h-93.3zM697.1 355.6h93.3v31.1h-93.3zM899.2 977.7H401.6c-42.9 0-77.8-34.9-77.8-77.8V651.1c0-8.6 7-15.6 15.6-15.6h622c8.6 0 15.5 7 15.5 15.6v248.8c0.1 42.9-34.8 77.8-77.7 77.8z m-544.3-311V900c0 25.7 20.9 46.7 46.7 46.7h497.6c25.7 0 46.7-20.9 46.7-46.7V666.7h-591z" fill="#353535" /><path d="M899.2 977.7H401.6c-42.9 0-77.7-34.9-77.7-77.8v-21.3c0-5.2 2.6-10.1 7-13 43.6-28.9 88.2-43.5 132.7-43.5 39 0.1 61.5 11.4 83.3 22.3 19.4 9.7 39.5 19.8 74.6 24.5 10.4 1.4 20.2 2 30.1 2 34.1 0 60.4-8.2 88.2-16.9 29-9 58.9-18.3 97.9-18.3 10.5 0 21.5 0.7 32.5 2.1 33.5 4.2 66.6 14.4 98.4 30.4 5.2 2.6 8.5 8 8.5 13.9v17.8c-0.1 42.9-35 77.8-77.9 77.8z m-544.3-90.6v12.8c0 25.7 20.9 46.6 46.6 46.6h497.6c25.7 0 46.7-20.9 46.7-46.6v-8c-25.9-12.1-52.7-19.8-79.7-23.2-9.8-1.2-19.4-1.8-28.6-1.8-34.3 0-60.7 8.2-88.7 16.9-28.9 9-58.7 18.3-97.5 18.3-11.1 0-22.5-0.8-34.1-2.3-40.3-5.3-63.8-17.1-84.5-27.5-21.1-10.6-37.7-19-69-19-36.1 0-72.6 11.3-108.8 33.8z" fill="#353535" /><path d="M821.5 884.4h31.1v31.1h-31.1zM417.1 884.4h31.1v31.1h-31.1zM479.3 884.4h31.1v31.1h-31.1zM821.5 604.4H479.3c-42.9 0-77.8-34.9-77.8-77.8v-40.8c0-7.2 4.9-13.4 11.8-15.1 17.2-4.2 33.6-6.3 50-6.3 39.1 0.1 61.6 11.4 83.4 22.3 19.4 9.7 39.5 19.8 74.6 24.5 10.4 1.4 20.2 2 30.1 2 34.1 0 60.4-8.2 88.2-16.9 29-9 58.9-18.4 98-18.4 10.5 0 21.5 0.7 32.5 2.1 4.4 0.5 8.5 1.3 12.6 2.1l3.9 0.7c7.4 1.4 12.7 7.8 12.7 15.3v28.4c-0.1 43.1-35 77.9-77.8 77.9z m-388.8-106v28.2c0 25.7 20.9 46.7 46.7 46.7h342.1c25.7 0 46.6-20.9 46.6-46.7v-15.4c-0.6-0.1-1.3-0.2-1.9-0.3-9.8-1.2-19.4-1.8-28.6-1.8-34.3 0-60.7 8.2-88.7 16.9-28.9 9-58.7 18.3-97.5 18.3-11 0-22.5-0.8-34.1-2.3-40.3-5.3-63.8-17.1-84.5-27.5-21.1-10.6-37.7-19-69-19-10.4 0.1-20.6 1-31.1 2.9zM681.5 200.1h-622c-8.6 0-15.6-7-15.6-15.6V60.2c0-8.6 7-15.6 15.6-15.6h622c8.6 0 15.6 7 15.6 15.6v124.4c0 8.6-7 15.5-15.6 15.5zM75 169h591V75.7H75V169z" fill="#353535" /><path d="M681.5 262.3h-622c-8.6 0-15.6-7-15.6-15.6v-62.2c0-8.6 7-15.6 15.6-15.6h622c8.6 0 15.6 7 15.6 15.6v62.2c0 8.7-7 15.6-15.6 15.6zM75 231.2h591v-31.1H75v31.1z" fill="#353535" /><path d="M339.4 853.3H59.5c-8.6 0-15.6-7-15.6-15.6V246.8c0-8.6 7-15.6 15.6-15.6h388.8c8.6 0 15.6 7 15.6 15.6s-7 15.6-15.6 15.6-15.5 7-15.5 15.6v248.8c0 25.7 20.9 46.7 46.6 46.7 8.6 0 15.6 7 15.6 15.6s-7 15.6-15.6 15.6H370.5c-8.6 0-15.5 7-15.5 15.5v217.7c-0.1 8.4-7 15.4-15.6 15.4zM75 822.1h248.8V620c0-25.7 20.9-46.7 46.6-46.7h46.7c-9.8-13-15.6-29.2-15.6-46.7V277.9c0-5.4 0.9-10.7 2.7-15.6H75v559.8z" fill="#353535" /><path d="M152.8 853.3c-60 0-108.9-41.9-108.9-93.3 0-51.5 48.8-93.3 108.9-93.3 60 0 108.9 41.9 108.9 93.3-0.1 51.4-48.9 93.3-108.9 93.3z m0-155.6c-42.9 0-77.7 27.9-77.7 62.2 0 34.3 34.9 62.2 77.7 62.2 42.9 0 77.8-27.9 77.8-62.2-0.1-34.3-34.9-62.2-77.8-62.2z" fill="#353535" /><path d="M339.4 853.3c-60 0-108.9-41.9-108.9-93.3s48.8-93.3 108.9-93.3c8.6 0 15.6 7 15.6 15.6v155.5c-0.1 8.5-7 15.5-15.6 15.5zM323.8 699c-35.4 5.8-62.2 30.9-62.2 60.9s26.8 55.2 62.2 60.9V699z" fill="#353535" /><path d="M244.3 790.4c-4.4 0-8.7-1.9-11.7-5.3-3.3-3.8-4.6-8.9-3.5-13.8 0.9-3.9 1.3-7.7 1.3-11.4 0-8.6 7-15.6 15.6-15.6s15.6 7 15.6 15.6c0 3.5 0.4 7.1 1.3 10.9 1 4.3 0.1 8.7-2.4 12.3s-6.4 5.9-10.8 6.5c-1.8 0.3-2.8 0.5-3.9 0.6-0.5 0.1-1 0.2-1.5 0.2z" fill="#353535" /><path d="M246.1 775.5c-8.6 0-15.6-7-15.6-15.6 0-34.3-34.9-62.2-77.7-62.2-12.9 0-25.7 2.6-37.1 7.6-4.2 1.8-8.9 1.7-13-0.3s-7.1-5.7-8.3-10c-2.5-9.6-3.8-19.1-3.8-28.4 0-68.6 62.8-124.4 140-124.4 51.1 0 98 24.8 122.6 64.6 1.9 3.2 2.7 6.9 2.1 10.6-0.1 0.9-0.3 1.7-0.3 2.6v62.2c0 8.6-7 15.6-15.6 15.6-42.9 0-77.8 27.9-77.8 62.2 0 8.5-6.9 15.5-15.5 15.5z m-93.3-108.9c39.5 0 74.2 18.2 93.3 45.3 16.5-23.5 44.8-40.3 77.8-44.3V620v-1.1c-19.6-28.2-54.9-45.6-93.3-45.6-60 0-108.9 41.8-108.9 93.3 0 1.3 0 2.5 0.1 3.8 10-2.5 20.3-3.8 31-3.8zM106.1 760h31.1v31.1h-31.1z" fill="#353535" /><path d="M152.8 728.8h31.1v31.1h-31.1zM199.4 604.4h31.1v31.1h-31.1zM261.6 620h31.1v31.1h-31.1zM417.1 495.6H137.2c-8.6 0-15.6-7-15.6-15.6V355.6c0-8.6 7-15.6 15.6-15.6h279.9c8.6 0 15.6 7 15.6 15.6V480c0 8.6-7 15.6-15.6 15.6z m-264.3-31.1h248.8v-93.3H152.8v93.3z" fill="#353535" /></svg>