<?xml version="1.0" standalone="no"?><!DOCTYPE svg PUBLIC "-//W3C//DTD SVG 1.1//EN" "http://www.w3.org/Graphics/SVG/1.1/DTD/svg11.dtd"><svg class="icon" width="200px" height="200.00px" viewBox="0 0 1024 1024" version="1.1" xmlns="http://www.w3.org/2000/svg"><path d="M738.8 465.8H161.2c-50.4 0-91.2 40.8-91.2 91.2v243.2h760V557c0-50.4-40.8-91.2-91.2-91.2m-30.4 258.4c-25.2 0-45.6-20.4-45.6-45.6 0-25.2 20.4-45.6 45.6-45.6 25.2 0 45.6 20.4 45.6 45.6 0 25.2-20.4 45.6-45.6 45.6" fill="#EEE3D2" /><path d="M161.2 921.8c0 16.8 13.6 30.4 30.4 30.4H222c16.8 0 30.4-13.6 30.4-30.4v-30.4h-91.2v30.4zM647.6 921.8c0 16.8 13.6 30.4 30.4 30.4h30.4c16.8 0 30.4-13.6 30.4-30.4v-30.4h-91.2v30.4z" fill="#58B09A" /><path d="M921.2 557H830v60.8h91.2c16.8 0 30.4-13.6 30.4-30.4 0-16.8-13.6-30.4-30.4-30.4M70 891.4H830v-91.2H70z" fill="#67C1B2" /><path d="M480.4 277c26.8-11.7 45.6-38.4 45.6-69.6 0-42-34-76-76-76H206.8c-42 0-76 34-76 76 0 31.1 18.8 57.8 45.6 69.6v188.8h304V277zM222 237.8c0-25.2 20.4-45.6 45.6-45.6-25.2 0-45.6 20.4-45.6 45.6m197.6 182.4v-30.4 30.4z m0-60.8V329v30.4z m0-60.8v-30.4 30.4z" fill="#EDB52B" /><path d="M526 207.4c0 31.1-18.8 57.8-45.6 69.6v188.8h243.2V216.2c26.8-11.7 45.6-38.4 45.6-69.6 0-42-34-76-76-76H450c-36.8 0-67.4 26.1-74.5 60.8H450c42 0 76 34 76 76m136.8 15.2V253v-30.4z m0 60.8v30.4-30.4z m0 60.8v30.4-30.4z" fill="#EDB52B" /><path d="M708.4 633c-25.2 0-45.6 20.4-45.6 45.6 0 25.2 20.4 45.6 45.6 45.6 25.2 0 45.6-20.4 45.6-45.6 0-25.2-20.4-45.6-45.6-45.6" fill="#67C1B2" /><path d="M830 815.4H70c-8.4 0-15.2-6.8-15.2-15.2V557c0-58.7 47.7-106.4 106.4-106.4h577.6c58.7 0 106.4 47.7 106.4 106.4v243.2c0 8.4-6.8 15.2-15.2 15.2zM85.2 785h729.6V557c0-41.9-34.1-76-76-76H161.2c-41.9 0-76 34.1-76 76v228zM222 967.4h-30.4c-25.1 0-45.6-20.5-45.6-45.6v-30.4c0-8.4 6.8-15.2 15.2-15.2h91.2c8.4 0 15.2 6.8 15.2 15.2v30.4c0 25.1-20.4 45.6-45.6 45.6z m-45.6-60.8v15.2c0 8.4 6.8 15.2 15.2 15.2H222c8.4 0 15.2-6.8 15.2-15.2v-15.2h-60.8zM708.4 967.4H678c-25.1 0-45.6-20.5-45.6-45.6v-30.4c0-8.4 6.8-15.2 15.2-15.2h91.2c8.4 0 15.2 6.8 15.2 15.2v30.4c0 25.1-20.4 45.6-45.6 45.6z m-45.6-60.8v15.2c0 8.4 6.8 15.2 15.2 15.2h30.4c8.4 0 15.2-6.8 15.2-15.2v-15.2h-60.8z" fill="#353535" /><path d="M921.2 633H830c-8.4 0-15.2-6.8-15.2-15.2V557c0-8.4 6.8-15.2 15.2-15.2h91.2c25.1 0 45.6 20.5 45.6 45.6S946.4 633 921.2 633z m-76-30.4h76c8.4 0 15.2-6.8 15.2-15.2s-6.8-15.2-15.2-15.2h-76v30.4zM830 906.6H70c-8.4 0-15.2-6.8-15.2-15.2v-91.2c0-8.4 6.8-15.2 15.2-15.2h760c8.4 0 15.2 6.8 15.2 15.2v91.2c0 8.4-6.8 15.2-15.2 15.2zM85.2 876.2h729.6v-60.8H85.2v60.8zM480.4 481h-304c-8.4 0-15.2-6.8-15.2-15.2V286.3c-28-16.2-45.6-46.2-45.6-78.9 0-50.3 40.9-91.2 91.2-91.2H450c50.3 0 91.2 40.9 91.2 91.2 0 32.8-17.6 62.7-45.6 78.9v179.5c0 8.4-6.8 15.2-15.2 15.2z m-288.8-30.4h273.6V277c0-6 3.6-11.5 9.1-13.9 22.2-9.7 36.5-31.6 36.5-55.7 0-33.5-27.3-60.8-60.8-60.8H206.8c-33.5 0-60.8 27.3-60.8 60.8 0 24.1 14.3 46 36.5 55.7 5.5 2.4 9.1 7.9 9.1 13.9v173.6z" fill="#353535" /><path d="M723.6 481H480.4c-8.4 0-15.2-6.8-15.2-15.2V277c0-6 3.6-11.5 9.1-13.9 22.2-9.7 36.5-31.5 36.5-55.7 0-33.5-27.3-60.8-60.8-60.8h-74.5c-4.6 0-8.9-2.1-11.8-5.6-2.9-3.5-4-8.2-3.1-12.6 8.6-42.3 46.2-73 89.4-73h243.2c50.3 0 91.2 40.9 91.2 91.2 0 32.8-17.6 62.7-45.6 78.9v240.3c0 8.4-6.8 15.2-15.2 15.2z m-228-30.4h212.8V216.2c0-6 3.6-11.5 9.1-13.9 22.2-9.7 36.5-31.5 36.5-55.7 0-33.5-27.3-60.8-60.8-60.8H450c-22.1 0-42 12.1-52.7 30.4H450c50.3 0 91.2 40.9 91.2 91.2 0 32.8-17.6 62.7-45.6 78.9v164.3zM237.2 237.8h-30.4c0-33.5 27.3-60.8 60.8-60.8v30.4c-16.8 0-30.4 13.6-30.4 30.4zM404.4 389.8h30.4v30.4h-30.4z" fill="#353535" /><path d="M404.4 329h30.4v30.4h-30.4zM404.4 268.2h30.4v30.4h-30.4zM647.6 222.6H678V253h-30.4zM647.6 283.4H678v30.4h-30.4zM647.6 344.2H678v30.4h-30.4zM708.4 739.4c-33.5 0-60.8-27.3-60.8-60.8s27.3-60.8 60.8-60.8 60.8 27.3 60.8 60.8-27.2 60.8-60.8 60.8z m0-91.2c-16.8 0-30.4 13.6-30.4 30.4 0 16.8 13.6 30.4 30.4 30.4 16.8 0 30.4-13.6 30.4-30.4 0-16.8-13.6-30.4-30.4-30.4zM936.4 55.4h30.4v182.4h-30.4zM845.2 116.2h30.4v182.4h-30.4zM936.4 268.2h30.4v30.4h-30.4zM845.2 329h30.4v30.4h-30.4z" fill="#353535" /></svg>