<?xml version="1.0" standalone="no"?><!DOCTYPE svg PUBLIC "-//W3C//DTD SVG 1.1//EN" "http://www.w3.org/Graphics/SVG/1.1/DTD/svg11.dtd"><svg class="icon" width="200px" height="200.00px" viewBox="0 0 1024 1024" version="1.1" xmlns="http://www.w3.org/2000/svg"><path d="M903.7 747.8H116.2c-34.8 0-63 28.2-63 63v94.5c0 34.8 28.2 63 63 63h787.5c34.8 0 63-28.2 63-63v-94.5c0-34.8-28.2-63-63-63M557.2 889.5h-94.5v-63h94.5v63z m157.5 0h-94.5v-63h94.5v63zM825 905.3c-26.1 0-47.3-21.2-47.3-47.3 0-26.1 21.2-47.3 47.3-47.3 26.1 0 47.3 21.2 47.3 47.3-0.1 26.1-21.2 47.3-47.3 47.3" fill="#67C1B2" /><path d="M825 810.8c-26.1 0-47.3 21.2-47.3 47.3 0 26.1 21.2 47.3 47.3 47.3 26.1 0 47.3-21.2 47.3-47.3-0.1-26.2-21.2-47.3-47.3-47.3M620.2 826.5h94.5v63h-94.5zM462.7 826.5h94.5v63h-94.5zM730.5 448.5h78.8v173.3c0 17.4 14.1 31.5 31.5 31.5h15.8c17.4 0 31.5-14.1 31.5-31.5V401.3c0-17.4-14.1-31.5-31.5-31.5H174.5c-14.6 0-21.4 18.2-10.2 27.7l77.9 66.8v283.5h488.3V448.5zM620.2 653.3h63-63z m0-94.5h63-63z m0-94.5h63-63z" fill="#EEE3D2" /><path d="M494.2 54.7c-113.1 0-204.8 141-204.8 315h110.3c0-173.9 42.3-315 94.5-315M588.7 369.8H699c0-174-91.7-315-204.8-315 52.2 0 94.5 141 94.5 315" fill="#EDB52B" /><path d="M399.7 369.8h189c0-174-42.3-315-94.5-315s-94.5 141-94.5 315" fill="#EDB52B" /><path d="M903.7 984H116.2c-43.4 0-78.8-35.3-78.8-78.7v-94.5c0-43.4 35.3-78.8 78.8-78.8h787.5c43.4 0 78.7 35.3 78.7 78.8v94.5c0.1 43.4-35.2 78.7-78.7 78.7zM116.2 763.5c-26.1 0-47.3 21.2-47.3 47.3v94.5c0 26 21.2 47.3 47.3 47.3h787.5c26 0 47.2-21.2 47.2-47.3v-94.5c0-26.1-21.2-47.3-47.2-47.3H116.2z" fill="#353535" /><path d="M825 921c-34.7 0-63-28.3-63-63s28.3-63 63-63 63 28.3 63 63-28.3 63-63 63z m0-94.5c-17.4 0-31.5 14.1-31.5 31.5s14.1 31.5 31.5 31.5 31.5-14.1 31.5-31.5-14.1-31.5-31.5-31.5zM714.7 905.3h-94.5c-8.7 0-15.7-7.1-15.7-15.8v-63c0-8.7 7.1-15.7 15.7-15.7h94.5c8.7 0 15.8 7 15.8 15.7v63c0 8.7-7.1 15.8-15.8 15.8zM636 873.8h63v-31.5h-63v31.5zM557.2 905.3h-94.5c-8.7 0-15.8-7.1-15.8-15.8v-63c0-8.7 7.1-15.7 15.8-15.7h94.5c8.7 0 15.7 7 15.7 15.7v63c0.1 8.7-7 15.8-15.7 15.8z m-78.7-31.5h63v-31.5h-63v31.5zM730.5 763.5H242.2c-8.7 0-15.8-7-15.8-15.7V471.5L154 409.4c-10.1-8.7-13.7-22.4-9-34.9 4.6-12.5 16.2-20.6 29.5-20.6h682c26 0 47.3 21.2 47.3 47.3v220.5c0 26.1-21.2 47.3-47.3 47.3h-15.8c-26.1 0-47.3-21.2-47.3-47.3V464.3h-47.3v283.5c0.1 8.7-6.9 15.7-15.6 15.7zM258 732h456.8V448.5c0-8.7 7.1-15.8 15.7-15.8h78.8c8.7 0 15.7 7.1 15.7 15.8v173.3c0 8.7 7.1 15.7 15.7 15.7h15.8c8.7 0 15.7-7.1 15.7-15.7V401.3c0-8.7-7.1-15.8-15.7-15.8h-682l77.9 66.8c3.5 3 5.5 7.4 5.5 12V732z" fill="#353535" /><path d="M620.2 448.5h63V480h-63zM620.2 543h63v31.5h-63zM620.2 637.5h63V669h-63zM588.7 385.5h-189c-8.7 0-15.8-7.1-15.8-15.8C384 205.4 421.8 39 494.2 39s110.3 166.4 110.3 330.8c0 8.6-7.1 15.7-15.8 15.7zM415.6 354h157.3c-2.5-176.1-46.7-283.5-78.6-283.5-32 0-76.2 107.4-78.7 283.5z" fill="#353535" /><path d="M699 385.5H289.5c-8.7 0-15.8-7.1-15.8-15.8C273.7 187.4 372.6 39 494.2 39s220.5 148.4 220.5 330.8c0 8.6-7 15.7-15.7 15.7zM305.5 354H683c-5.2-157.7-87.9-283.5-188.8-283.5S310.7 196.3 305.5 354z" fill="#353535" /></svg>